# xmcd
#
# Track frame offsets:
#   150
#   20554
#   38469
#   55786
#   73755
#   94326
#   109100
#   130114
#   149274
#   168014
#   187249
#   202654
#   222732
#   239627
#
# Disc length: 3369 seconds
#
# Revision: 2
# Processed by: cddbd v1.5.1PL0 Copyright (c) Steve Scherf et al.
# Submitted via: uFREEDB 1.6.2
#
DISCID=cc0d270e
DTITLE=Promo Only - 03.05 Urban Club - Disc A
DYEAR=2005
DGENRE=hip hop
TTITLE0=Mike Jones (f Slim Thug, Paul Wall) - Still Tippin
TTITLE1=Do Or Die (f R. Kelly) - Magic Chick
TTITLE2=2 Pac - Ghetto Gospel
TTITLE3=Lil Mo (f Miri Ben Ari) - Yeah Yeah Yeah
TTITLE4=Corey Gunz - Shake
TTITLE5=One Twelve - U Already Know
TTITLE6=Cassidy - I'm A Hustla (Hustla's Anthem)
TTITLE7=Ebony Eyez - In Ya Face
TTITLE8=Snoop Dogg (f Sean Carter, Pharrell) - Drop It Like It's Hot (Remix)
TTITLE9=Bobby Valentino - Slow Down
TTITLE10=50 Cent - Candy Shop
TTITLE11=Ja Rule (f Lloyd) - Caught Up
TTITLE12=Jacki O (f Jazze Pha) - Break You Off
TTITLE13=Beenie Man (f Vybz Kartel) - The Specialists
EXTD=
EXTT0=
EXTT1=
EXTT2=
EXTT3=
EXTT4=
EXTT5=
EXTT6=
EXTT7=
EXTT8=
EXTT9=
EXTT10=
EXTT11=
EXTT12=
EXTT13=
PLAYORDER=
